<?xml version="1.0" encoding="UTF-8"?>
<svg style="" version="1.0" viewBox="0 0 1546.9 318.03" xmlns="http://www.w3.org/2000/svg">
<rect width="100%" height="100%" fill="none"/>
<metadata>Created by potrace 1.12, written by Peter Selinger 2001-2015</metadata>
<g class="currentLayer" style="">
<title>Layer 1</title>
<g class="selected" transform="translate(-193.42 652) scale(.1 -.1)" fill="#736540">
<path d="m6557 6514c-4-4-7-511-7-1126v-1118h840 840v180 180h-600-600l-2 943-3 942-231 3c-127 1-233-1-237-4z"/>
<path d="m9236 6511c-6-9-805-2194-813-2223-5-17 11-18 229-18h235l99 285 98 285h430 431l95-276c52-152 98-280 101-285s102-8 235-7l230 3-407 1120-407 1120-275 3c-159 1-278-2-281-7zm591-1307c-2-2-146-3-319-2l-314 3 137 405c76 223 148 438 159 478l21 74 160-477c88-262 159-479 156-481z"/>
<path d="m10768 6488c11-18 192-316 401-663l381-630v-462-463h235 235v459 459l400 662c220 364 400 664 400 666s-111 3-246 2l-245-3-271-473c-150-260-275-469-279-465-4 5-123 213-264 463-142 250-262 461-268 468-7 9-70 12-254 12h-245l20-32z"/>
<path d="m13097 6513c-4-3-7-510-7-1125v-1118h920 920v180 180h-680-680v295 295l598 2 597 3 3 183 2 182h-600-600v280 280h645 645v185 185h-878c-483 0-882-3-885-7z"/>
<path d="m15280 5395v-1125h235 235v425 425l277-2 277-3 256-420 257-420 266-3 267-2-37 57c-20 32-155 242-300 467-145 224-263 412-263 416s16 11 35 14c76 15 197 87 272 163 132 134 191 301 180 509-20 359-256 570-686 613-59 7-350 11-687 11h-584v-1125zm1284 727c114-43 176-114 195-227 30-170-46-316-195-376-58-23-66-24-436-27l-378-3v331 331l378-3c359-4 380-5 436-26z"/>
<path d="m5770 6375c0-3-18-86-40-185s-40-182-40-185-47-5-105-5h-105v-105-104l98-3 97-3 5-650c6-732 2-699 84-792 76-87 178-114 359-95 62 7 129 17 150 22l37 11v105 105l-47-8c-27-4-83-8-125-8-89 0-120 17-153 81-19 38-20 59-20 634v595l158 3 157 3v104 105h-160-160v190 190h-95c-52 0-95-2-95-5z"/>
<path d="m4390 6020c-363-50-577-284-631-689-15-112-6-392 15-490 39-176 103-305 203-404 140-140 300-197 557-197 262 0 433 58 566 192 49 49 130 177 130 205 0 10-237 80-243 72-2-2-15-25-30-50-62-109-184-182-336-202-333-42-541 149-567 520l-7 93h618 618l-6 138c-20 446-192 708-522 792-88 23-272 33-365 20zm281-226c117-35 189-99 245-218 32-70 64-195 64-256v-30h-466-466l7 53c31 243 138 395 320 453 59 19 230 17 296-2z"/>
<path d="m2403 6005c-104-23-191-71-263-144-98-99-156-229-191-421-22-117-19-540 4-653 59-294 187-453 412-512 80-21 270-21 350 0 147 38 265 122 347 250l40 60-4-220c-4-191-7-229-26-285-40-123-109-199-220-244-58-23-227-33-300-17-118 25-205 90-247 185l-23 52-141-20-142-21 6-25c3-14 21-57 40-96 67-138 205-239 382-281 117-27 388-24 498 5 210 57 341 175 412 369 50 139 53 189 53 1133l1 875-127 3c-72 1-132-2-137-7s-12-71-15-145c-5-128-12-162-27-116-14 44-97 141-160 185-102 73-184 98-335 102-82 1-146-2-187-12zm413-239c91-45 151-111 203-220 63-132 76-203 76-416 0-211-11-272-75-405-49-102-120-176-209-219-62-29-73-31-181-31-103 0-121 3-170 26-77 36-112 68-149 138-45 84-70 193-82 357-18 243 12 488 75 613 71 140 190 205 360 197 66-4 91-10 152-40z"/>
<path d="m15529 3862c-27-24-33-37-37-85-4-55-5-57-33-57-24 0-29-4-29-25s5-25 30-25h30v-160-160h35 35v159 160l38 3c29 2 37 7 37 23s-8 21-37 23c-38 3-38 4-38 46 0 50 17 69 60 69 22 0 29 6 33 23 6 31 1 34-50 34-33 0-50-6-74-28z"/>
<path d="m14114 3849c-76-22-104-106-61-183l25-45-44-44c-40-41-44-48-44-95 0-40 5-57 27-83 51-61 140-76 223-38 40 18 46 18 56 5 11-16 84-23 84-9 0 4-12 19-26 34l-26 28 20 43c11 24 24 60 27 81 7 36 6 37-23 37-27 0-31-4-41-44-6-25-15-47-21-51-5-3-34 25-64 61l-55 67 40 30c44 32 69 73 69 111 0 35-45 84-88 96-42 11-37 11-78-1zm93-75c15-23 15-29 2-52-8-14-27-34-42-46l-29-21-19 24c-23 29-25 78-2 103 24 27 69 23 90-8zm-23-274c31-38 54-74 51-80-12-20-85-32-121-20-40 14-54 35-54 85 0 34 34 85 58 85 4 0 34-31 66-70z"/>
<path d="m14743 3848c-25-5-57-23-78-42-31-30-35-39-35-83 0-82 41-118 178-158 40-12 70-28 83-43 63-80-41-160-150-116-36 15-48 26-56 52-8 28-13 32-43 32-32 0-34-2-28-27 18-76 87-118 191-118 82 1 126 20 155 68 25 41 25 83 0 125-25 41-66 66-153 92-113 35-144 84-88 141 25 25 37 29 81 29s56-4 81-29c16-16 29-39 29-50 0-16 6-21 28-21 38 0 42 6 31 42-23 83-122 129-226 106z"/>
<path d="m11400 3600v-250h35 35v250 250h-35-35v-250z"/>
<path d="m12000 3765c0-43-1-45-30-45-25 0-30-4-30-25s5-25 30-25h30v-136-136l29-29c30-29 72-38 99-20 24 15 9 45-23 51l-30 5-3 133-3 132h36c31 0 35 3 35 25s-4 25-35 25c-35 0-35 0-35 45s0 45-35 45-35 0-35-45z"/>
<path d="m13620 3765c0-43-1-45-30-45-25 0-30-4-30-25s5-25 29-25h29l4-141c3-140 3-141 31-165 43-37 113-29 105 12-2 12-14 21-33 24l-30 5-3 133-3 132h36c31 0 35 3 35 25s-4 25-35 25c-35 0-35 0-35 45s0 45-35 45-35 0-35-45z"/>
<path d="m15727 3803c-4-3-7-24-7-45 0-34-3-38-25-38-20 0-25-5-25-25s5-25 25-25h25v-112c0-62 5-130 11-151 12-45 46-69 91-65 28 2 34 7 36 31 3 23 0 27-20 27-43 0-48 16-48 147v123h35c31 0 35 3 35 25s-4 25-35 25c-35 0-35 0-35 45 0 43-1 45-28 45-16 0-32-3-35-7z"/>
<path d="m11716 3720c-16-5-39-19-52-31l-24-22v26c0 23-4 27-30 27h-30v-185-185h35 35v139c0 139 0 140 26 160 34 27 88 27 114 1 18-18 20-33 20-160v-140h35 35v143c0 93-5 150-13 166-26 52-93 79-151 61z"/>
<path d="m12300 3708c-63-32-93-89-93-177 0-134 80-206 208-187 24 4 54 15 66 25 18 15 20 21 10 39-11 20-14 21-34 8-61-40-143-24-165 31-27 69-30 68 106 71 138 3 133-2 111 92-12 54-50 97-98 110-51 14-61 13-111-12zm105-44c18-7 45-54 45-79 0-12-15-15-85-15-77 0-85 2-85 19 0 11 12 33 26 50 26 31 60 39 99 25z"/>
<path d="m12720 3723c-8-3-25-15-38-26l-23-21-6 22c-4 16-13 22-34 22h-29v-185-185h35 35v139c0 133 1 141 22 155 12 9 37 16 55 16 29 0 33 3 33 25 0 14 1 28 3 33 3 9-33 13-53 5z"/>
<path d="m12966 3720c-16-5-39-19-52-31l-24-22v26c0 23-4 27-30 27h-30v-185-185h35 35v139c0 139 0 140 26 160 32 25 81 27 112 5 21-14 22-22 22-160v-144h35 35v141c0 148-10 192-49 216-27 17-82 23-115 13z"/>
<path d="m13314 3711c-71-33-112-120-99-210 17-116 95-174 210-157 24 4 54 15 66 25 18 15 20 21 10 39-11 20-14 21-34 8-38-25-91-30-125-12-35 18-46 35-57 84l-7 32h127 126l-7 53c-11 91-54 142-129 152-28 4-52 0-81-14zm106-51c16-8 40-58 40-81 0-5-38-9-85-9-77 0-85 2-85 19 0 11 12 33 26 50 27 33 67 41 104 21z"/>
<path d="m15157 3716c-49-18-62-30-86-80-29-60-28-157 2-210 30-54 67-78 125-84 99-9 169 55 179 166 7 71-8 121-49 168-27 30-80 54-118 54-8-1-32-7-53-14zm105-57c50-27 66-160 26-219-58-84-150-53-171 58-9 45 9 122 35 149 24 25 75 31 110 12z"/>
<path d="m16566 3716c-44-17-71-41-81-73-6-21-3-23 25-23 22 0 38 8 52 25 14 19 29 25 56 25 43 0 55-7 71-37 26-50 17-60-60-67-93-8-137-30-156-75-28-66 10-136 80-148 47-7 79 1 116 33l31 26v-26c0-23 4-26 33-26h33l-3 143c-3 78-9 154-14 168-20 52-113 80-183 55zm134-227c0-46-47-89-99-89-60 0-86 34-60 81 14 27 44 38 107 38 52 1 52 1 52-30z"/>
<path d="m16973 3710c-18-11-33-25-34-32 0-7-5-1-11 15-7 21-16 27-39 27h-29v-185-185h35 35v135c0 122 2 137 20 155 12 12 33 20 55 20 31 0 35 3 35 25 0 14 1 28 3 33 5 16-40 11-70-8z"/>
<path d="m17204 3719c-42-12-101-79-110-124-3-20-4-62-2-94 5-70 41-125 97-148 46-19 128-13 170 13 29 19 30 21 15 42-13 20-17 20-37 8-80-50-177-7-177 78v26h121 122l-6 55c-6 63-35 116-71 133-38 17-88 22-122 11zm105-75c12-15 21-37 21-50 0-23-2-24-86-24h-86l7 28c18 72 102 99 144 46z"/>
<path d="m15916 3698c4-13 28-95 54-183 46-157 47-160 76-163s29-3 67 120c20 68 37 129 37 136 0 6 3 12 8 12 4 0 25-60 47-133 39-129 41-132 70-135l30-3 49 173c27 95 51 179 54 186 3 8-7 12-30 12h-34l-34-141c-26-106-36-135-42-117-85 276-78 258-107 258-27 0-29-5-65-122-20-68-39-130-42-138-4-11-73 231-74 258 0 1-16 2-36 2-32 0-35-2-28-22z"/>
</g>
</g>
</svg>
